<svg xmlns="http://www.w3.org/2000/svg" xmlns:xlink="http://www.w3.org/1999/xlink" width="149.01837158203125" height="149" viewBox="0 0 149.01837158203125 149" fill="none">
<path d="M0 131.127L0 17.8725C3.05585 8.63076 9.03804 2.44464 18.6318 0L130.387 0C132.739 0.944456 135.183 1.70393 137.425 2.87067C143.852 6.20448 147.055 11.9829 149.018 18.632L149.018 131.127C145.963 140.388 139.98 146.574 130.387 149L17.8911 149C15.4834 147.87 12.9831 146.87 10.6494 145.592C4.90803 142.407 2.29658 136.85 0 131.127Z"   fill="#FEA32E" >
</path>
<path d="M49.1176 76.7747L49.1176 120.713C49.1176 120.832 49.1148 120.951 49.1092 121.07C49.1035 121.189 49.095 121.308 49.0836 121.427C49.0724 121.546 49.0582 121.664 49.0412 121.782C49.0243 121.9 49.0045 122.017 48.982 122.134C48.9594 122.251 48.9341 122.368 48.9061 122.483C48.878 122.599 48.8472 122.714 48.8138 122.828C48.7802 122.942 48.7439 123.055 48.705 123.168C48.6661 123.28 48.6246 123.391 48.5803 123.501C48.5361 123.612 48.4893 123.721 48.4399 123.828C48.3905 123.936 48.3386 124.043 48.2842 124.148C48.2297 124.253 48.1727 124.357 48.1134 124.459C48.054 124.561 47.9921 124.662 47.9279 124.761C47.8638 124.86 47.7974 124.958 47.7285 125.054C47.6597 125.15 47.5887 125.243 47.5154 125.336C47.4422 125.428 47.3667 125.518 47.2892 125.606C47.2115 125.695 47.1318 125.781 47.0502 125.866C46.9684 125.95 46.8848 126.032 46.7993 126.112C46.7136 126.192 46.6262 126.27 46.5369 126.346C46.4476 126.422 46.3566 126.495 46.2638 126.566C46.171 126.637 46.0766 126.706 45.9805 126.772C45.8844 126.838 45.7869 126.902 45.6879 126.963C45.5887 127.024 45.4882 127.083 45.3864 127.139C45.2844 127.196 45.1813 127.249 45.0768 127.3C44.9724 127.351 44.8669 127.4 44.7601 127.445C44.6534 127.491 44.5456 127.534 44.437 127.574C44.3281 127.614 44.2184 127.652 44.1079 127.686C43.9974 127.721 43.886 127.753 43.7739 127.782C43.6619 127.811 43.5492 127.837 43.4358 127.86C43.3226 127.883 43.2088 127.904 43.0945 127.921C42.9803 127.939 42.8657 127.953 42.7507 127.965C42.6358 127.977 42.5206 127.986 42.4051 127.991C42.2898 127.997 42.1744 128 42.0588 128C41.9433 128 41.8278 127.997 41.7125 127.991C41.5971 127.986 41.4819 127.977 41.3669 127.965C41.252 127.953 41.1374 127.939 41.0232 127.921C40.9088 127.904 40.795 127.883 40.6818 127.86C40.5684 127.837 40.4558 127.811 40.3438 127.782C40.2316 127.753 40.1203 127.721 40.0097 127.686C39.8992 127.652 39.7895 127.614 39.6807 127.574C39.572 127.534 39.4643 127.491 39.3575 127.445C39.2508 127.4 39.1452 127.351 39.0408 127.3C38.9364 127.249 38.8332 127.196 38.7313 127.139C38.6294 127.083 38.5289 127.024 38.4298 126.963C38.3308 126.902 38.2332 126.838 38.1371 126.772C38.041 126.706 37.9466 126.637 37.8539 126.566C37.7611 126.495 37.67 126.422 37.5807 126.346C37.4915 126.27 37.404 126.192 37.3184 126.112C37.2328 126.032 37.1492 125.95 37.0675 125.866C36.9858 125.781 36.9062 125.695 36.8285 125.606C36.7509 125.518 36.6755 125.428 36.6022 125.336C36.5289 125.243 36.4579 125.15 36.3892 125.054C36.3203 124.958 36.2538 124.86 36.1897 124.761C36.1255 124.662 36.0637 124.561 36.0042 124.459C35.9449 124.357 35.888 124.253 35.8335 124.148C35.779 124.043 35.7271 123.936 35.6778 123.828C35.6284 123.721 35.5816 123.612 35.5373 123.501C35.4931 123.391 35.4515 123.28 35.4127 123.168C35.3737 123.055 35.3374 122.942 35.3039 122.828C35.2704 122.714 35.2396 122.599 35.2116 122.483C35.1835 122.368 35.1582 122.251 35.1357 122.134C35.1131 122.017 35.0934 121.9 35.0765 121.782C35.0594 121.664 35.0453 121.546 35.034 121.427C35.0227 121.308 35.0142 121.189 35.0085 121.07C35.0028 120.951 35 120.832 35 120.713L35 56.4477C35 48.1111 45.4658 44.8462 49.946 51.7838L75 90.5622L100.054 51.7644C104.534 44.8365 115 48.1012 115 56.4284L115 120.713C115 120.832 114.997 120.951 114.992 121.07C114.986 121.189 114.977 121.308 114.966 121.427C114.955 121.546 114.941 121.664 114.924 121.782C114.907 121.9 114.887 122.017 114.864 122.134C114.842 122.251 114.817 122.368 114.788 122.483C114.76 122.599 114.73 122.714 114.696 122.828C114.662 122.942 114.626 123.055 114.587 123.168C114.549 123.28 114.507 123.391 114.463 123.501C114.418 123.612 114.372 123.721 114.322 123.828C114.273 123.936 114.221 124.043 114.167 124.148C114.112 124.253 114.055 124.357 113.996 124.459C113.936 124.561 113.874 124.662 113.81 124.761C113.746 124.86 113.68 124.958 113.611 125.054C113.542 125.15 113.471 125.243 113.398 125.336C113.324 125.428 113.249 125.518 113.171 125.606C113.094 125.695 113.014 125.781 112.933 125.866C112.851 125.95 112.767 126.032 112.682 126.112C112.596 126.192 112.508 126.27 112.419 126.346C112.33 126.422 112.239 126.495 112.146 126.566C112.053 126.637 111.959 126.706 111.863 126.772C111.767 126.838 111.669 126.902 111.57 126.963C111.471 127.024 111.371 127.083 111.269 127.139C111.167 127.196 111.064 127.249 110.959 127.3C110.855 127.351 110.749 127.4 110.642 127.445C110.536 127.491 110.428 127.534 110.319 127.574C110.21 127.614 110.101 127.652 109.99 127.686C109.88 127.721 109.768 127.753 109.656 127.782C109.544 127.811 109.432 127.837 109.318 127.86C109.205 127.883 109.091 127.904 108.977 127.921C108.863 127.939 108.748 127.953 108.633 127.965C108.518 127.977 108.403 127.986 108.287 127.991C108.172 127.997 108.057 128 107.941 128C107.826 128 107.71 127.997 107.595 127.991C107.479 127.986 107.364 127.977 107.249 127.965C107.134 127.953 107.02 127.939 106.906 127.921C106.791 127.904 106.677 127.883 106.564 127.86C106.451 127.837 106.338 127.811 106.226 127.782C106.114 127.753 106.003 127.721 105.892 127.686C105.782 127.652 105.672 127.614 105.563 127.574C105.454 127.534 105.347 127.491 105.24 127.445C105.133 127.4 105.028 127.351 104.923 127.3C104.819 127.249 104.716 127.196 104.614 127.139C104.512 127.083 104.411 127.024 104.312 126.963C104.213 126.902 104.116 126.838 104.019 126.772C103.923 126.706 103.829 126.637 103.736 126.566C103.643 126.495 103.552 126.422 103.463 126.346C103.374 126.27 103.286 126.192 103.201 126.112C103.115 126.032 103.032 125.95 102.95 125.866C102.868 125.781 102.789 125.695 102.711 125.606C102.633 125.518 102.558 125.428 102.485 125.336C102.411 125.243 102.34 125.15 102.272 125.054C102.203 124.958 102.136 124.86 102.072 124.761C102.008 124.662 101.946 124.561 101.887 124.459C101.827 124.357 101.77 124.253 101.716 124.148C101.661 124.043 101.61 123.936 101.56 123.828C101.511 123.721 101.464 123.612 101.42 123.501C101.375 123.391 101.334 123.28 101.295 123.168C101.256 123.055 101.22 122.942 101.186 122.828C101.153 122.714 101.122 122.599 101.094 122.483C101.066 122.368 101.041 122.251 101.018 122.134C100.995 122.017 100.976 121.9 100.959 121.782C100.942 121.664 100.928 121.546 100.916 121.427C100.905 121.308 100.897 121.189 100.891 121.07C100.885 120.951 100.882 120.832 100.882 120.713L100.882 76.7747L81.7858 106.342C81.693 106.485 81.5961 106.626 81.4952 106.763C81.3941 106.9 81.289 107.034 81.18 107.165C81.071 107.295 80.9581 107.422 80.8415 107.545C80.7248 107.669 80.6048 107.788 80.4811 107.904C80.3574 108.02 80.2303 108.132 80.1 108.24C79.9697 108.347 79.8362 108.451 79.6996 108.55C79.563 108.65 79.4237 108.744 79.2816 108.835C79.1395 108.925 78.9947 109.011 78.8474 109.092C78.7002 109.174 78.5507 109.25 78.3989 109.322C78.2471 109.394 78.0932 109.461 77.9375 109.523C77.7816 109.585 77.6241 109.642 77.4649 109.694C77.3057 109.746 77.1452 109.793 76.9833 109.835C76.8213 109.877 76.6581 109.914 76.4939 109.945C76.3298 109.977 76.1649 110.003 75.9991 110.024C75.8335 110.045 75.6673 110.061 75.5005 110.072C75.3338 110.082 75.1671 110.087 75 110.087C74.8329 110.087 74.6662 110.082 74.4995 110.072C74.3327 110.061 74.1665 110.045 74.0009 110.024C73.8351 110.003 73.6702 109.977 73.5061 109.945C73.3419 109.914 73.1787 109.877 73.0167 109.835C72.8548 109.793 72.6943 109.746 72.5351 109.694C72.3759 109.642 72.2184 109.585 72.0625 109.523C71.9068 109.461 71.7529 109.394 71.6011 109.322C71.4494 109.25 71.2998 109.174 71.1526 109.092C71.0053 109.011 70.8605 108.925 70.7184 108.835C70.5763 108.744 70.437 108.65 70.3004 108.55C70.1638 108.451 70.0305 108.347 69.9002 108.24C69.7699 108.132 69.6426 108.02 69.5189 107.904C69.3952 107.788 69.2752 107.669 69.1585 107.545C69.0419 107.422 68.929 107.295 68.82 107.165C68.711 107.034 68.6059 106.9 68.5048 106.763C68.4039 106.626 68.307 106.485 68.2142 106.342L49.1176 76.7747Z"   fill="#FFFFFF" >
</path>
<g  clip-path="url(#clip-path-TvZpnWQYJCN6JG3Xdva1p)">
<path d="M68.6666 42.3334L47 36.5L68.6666 30.6666L74.5 9L80.3334 30.6666L102 36.5L80.3334 42.3334L74.5 64L68.6666 42.3334Z"   fill="#FFFFFF" >
</path>
</g>
<defs>
<clipPath id="clip-path-TvZpnWQYJCN6JG3Xdva1p">
<path d="M47 64L102 64L102 9L47 9L47 64Z" fill="white"/>
</clipPath>
</defs>
</svg>
